<?xml version="1.0" encoding="UTF-8" standalone="no"?>
<!-- Created with Inkscape (http://www.inkscape.org/) -->

<svg
   width="115"
   height="33"
   viewBox="0 0 30.427082 8.73125"
   version="1.1"
   id="svg5"
   xml:space="preserve"
   inkscape:version="1.2.2 (732a01da63, 2022-12-09)"
   sodipodi:docname="todo_logo.svg"
   xmlns:inkscape="http://www.inkscape.org/namespaces/inkscape"
   xmlns:sodipodi="http://sodipodi.sourceforge.net/DTD/sodipodi-0.dtd"
   xmlns="http://www.w3.org/2000/svg"
   xmlns:svg="http://www.w3.org/2000/svg"><sodipodi:namedview
     id="namedview7"
     pagecolor="#ffffff"
     bordercolor="#000000"
     borderopacity="0.25"
     inkscape:showpageshadow="2"
     inkscape:pageopacity="0.0"
     inkscape:pagecheckerboard="0"
     inkscape:deskcolor="#d1d1d1"
     inkscape:document-units="mm"
     showgrid="false"
     inkscape:zoom="5.9711538"
     inkscape:cx="104"
     inkscape:cy="16.57971"
     inkscape:window-width="1920"
     inkscape:window-height="974"
     inkscape:window-x="-11"
     inkscape:window-y="-11"
     inkscape:window-maximized="1"
     inkscape:current-layer="layer1" /><defs
     id="defs2" /><g
     inkscape:label="Layer 1"
     inkscape:groupmode="layer"
     id="layer1"><g
       id="g4030"
       transform="matrix(0.10920102,0,0,0.10920102,6.9483306,-7.0592972)"><g
         id="g3811"
         transform="matrix(0.76499328,0,0,0.76499328,-85.103401,32.195222)"
         style="fill:#002255;fill-opacity:1"><path
           style="fill:#002255;fill-opacity:1;stroke-width:0.264583"
           d="m 107.88624,136.51565 c -0.68348,-0.31793 -3.36524,-2.82268 -7.57155,-7.07179 -6.168502,-6.23127 -6.530084,-6.65133 -6.831784,-7.93676 -0.615217,-2.6212 0.582825,-5.13178 3.017227,-6.32282 1.661638,-0.81297 3.249834,-0.82487 4.907747,-0.0368 0.51149,0.24313 2.71165,2.22671 4.88925,4.40795 l 3.95927,3.96589 9.92742,-9.88692 c 9.57688,-9.53781 9.97534,-9.89808 11.28468,-10.20298 2.56063,-0.59629 5.13029,0.61719 6.30689,2.97832 0.73627,1.4775 0.83132,2.59596 0.3614,4.25307 -0.26347,0.92914 -2.07952,2.86736 -12.36927,13.20144 -7.94782,7.98206 -12.42727,12.29022 -13.13617,12.63385 -1.35863,0.65858 -3.35117,0.66593 -4.74511,0.0175 z"
           id="path302" /><path
           style="fill:#002255;fill-opacity:1;stroke-width:0.264583"
           d="m 40.92554,74.736361 c -1.60055,-0.505066 -2.68069,-1.423218 -3.42025,-2.907324 -1.12065,-2.248852 -0.7327,-4.597111 1.05479,-6.384596 0.60013,-0.600128 1.53826,-1.205474 2.1527,-1.389063 1.44799,-0.432649 63.98736,-0.472469 65.53854,-0.04173 0.556,0.154395 1.47178,0.697082 2.03506,1.205971 2.85336,2.577838 2.30823,7.19632 -1.07335,9.093697 l -1.17887,0.661458 -32.014582,0.05111 C 48.53346,75.066564 41.78487,75.007524 40.92554,74.736361 Z"
           id="path357" /><path
           style="fill:#002255;fill-opacity:1;stroke-width:0.264583"
           d="m 40.15064,102.66113 c -3.434,-1.56542 -4.34577,-5.971075 -1.81538,-8.771915 1.80134,-1.99387 -0.65888,-1.87058 35.706993,-1.78931 l 32.566417,0.0728 1.03566,0.72331 c 1.79913,1.25653 2.35858,2.36691 2.35858,4.68127 0,1.73708 -0.0935,2.13912 -0.70276,3.020805 -0.38651,0.55937 -1.16042,1.33328 -1.71979,1.71979 l -1.01704,0.70276 -32.676034,0.062 c -31.157806,0.0591 -32.725316,0.0395 -33.736646,-0.42148 z"
           id="path355" /><path
           style="fill:#002255;fill-opacity:1;stroke-width:0.264583"
           d="m 40.55251,131.11526 c -1.36574,-0.43492 -3.00995,-2.20875 -3.42653,-3.69664 -0.73009,-2.60763 0.416,-5.31909 2.75765,-6.52414 l 1.31349,-0.67595 h 21.0485 21.0485 l 1.313492,0.67595 c 2.341648,1.20505 3.48774,3.91651 2.757652,6.52414 -0.439029,1.56805 -2.079244,3.26886 -3.5868,3.71931 -1.474063,0.44044 -41.838204,0.41927 -43.225954,-0.0227 z"
           id="path353" /></g><text
         xml:space="preserve"
         style="font-weight:bold;font-size:94.6033px;font-family:sans-serif;-inkscape-font-specification:'sans-serif Bold';text-align:justify;fill:#002255;fill-opacity:1;stroke-width:11.8254;stroke-linejoin:round"
         x="27.285929"
         y="136.17268"
         id="text3867"><tspan
           sodipodi:role="line"
           id="tspan3865"
           style="font-style:normal;font-variant:normal;font-weight:bold;font-stretch:normal;font-family:Calibri;-inkscape-font-specification:'Calibri Bold';fill:#002255;fill-opacity:1;stroke-width:11.8254"
           x="27.285929"
           y="136.17268">todo</tspan></text></g></g></svg>
