<?xml version="1.0" encoding="UTF-8" standalone="no"?>
<!-- Created with Inkscape (http://www.inkscape.org/) -->

<svg
   width="32"
   height="32"
   viewBox="0 0 8.4666653 8.4666672"
   version="1.1"
   id="svg1627"
   inkscape:version="1.2.2 (732a01da63, 2022-12-09)"
   sodipodi:docname="todo_icon.svg"
   inkscape:export-filename="citidient_icon.png"
   inkscape:export-xdpi="96"
   inkscape:export-ydpi="96"
   xmlns:inkscape="http://www.inkscape.org/namespaces/inkscape"
   xmlns:sodipodi="http://sodipodi.sourceforge.net/DTD/sodipodi-0.dtd"
   xmlns="http://www.w3.org/2000/svg"
   xmlns:svg="http://www.w3.org/2000/svg">
  <sodipodi:namedview
     id="namedview1629"
     pagecolor="#ffffff"
     bordercolor="#000000"
     borderopacity="0.25"
     inkscape:showpageshadow="2"
     inkscape:pageopacity="0.0"
     inkscape:pagecheckerboard="0"
     inkscape:deskcolor="#d1d1d1"
     inkscape:document-units="mm"
     showgrid="false"
     inkscape:zoom="5.936"
     inkscape:cx="47.338275"
     inkscape:cy="33.861186"
     inkscape:window-width="1920"
     inkscape:window-height="974"
     inkscape:window-x="-11"
     inkscape:window-y="-11"
     inkscape:window-maximized="1"
     inkscape:current-layer="g3865" />
  <defs
     id="defs1624" />
  <g
     inkscape:label="Layer 1"
     inkscape:groupmode="layer"
     id="layer1"
     transform="translate(-6.1156984,-49.755115)">
    <g
       id="g3865"
       transform="matrix(0.25195154,0,0,0.25195154,5.6902325,40.047378)">
      <g
         id="g3811"
         transform="matrix(0.28811321,0,0,0.28811321,-6.7622551,26.419173)"
         style="fill:#1a1a1a;fill-opacity:1">
        <path
           style="fill:#1a1a1a;fill-opacity:1;stroke-width:0.264583"
           d="m 107.88624,136.51565 c -0.68348,-0.31793 -3.36524,-2.82268 -7.57155,-7.07179 -6.168502,-6.23127 -6.530084,-6.65133 -6.831784,-7.93676 -0.615217,-2.6212 0.582825,-5.13178 3.017227,-6.32282 1.661638,-0.81297 3.249834,-0.82487 4.907747,-0.0368 0.51149,0.24313 2.71165,2.22671 4.88925,4.40795 l 3.95927,3.96589 9.92742,-9.88692 c 9.57688,-9.53781 9.97534,-9.89808 11.28468,-10.20298 2.56063,-0.59629 5.13029,0.61719 6.30689,2.97832 0.73627,1.4775 0.83132,2.59596 0.3614,4.25307 -0.26347,0.92914 -2.07952,2.86736 -12.36927,13.20144 -7.94782,7.98206 -12.42727,12.29022 -13.13617,12.63385 -1.35863,0.65858 -3.35117,0.66593 -4.74511,0.0175 z"
           id="path302" />
        <path
           style="fill:#1a1a1a;fill-opacity:1;stroke-width:0.264583"
           d="m 40.92554,74.736361 c -1.60055,-0.505066 -2.68069,-1.423218 -3.42025,-2.907324 -1.12065,-2.248852 -0.7327,-4.597111 1.05479,-6.384596 0.60013,-0.600128 1.53826,-1.205474 2.1527,-1.389063 1.44799,-0.432649 63.98736,-0.472469 65.53854,-0.04173 0.556,0.154395 1.47178,0.697082 2.03506,1.205971 2.85336,2.577838 2.30823,7.19632 -1.07335,9.093697 l -1.17887,0.661458 -32.014582,0.05111 C 48.53346,75.066564 41.78487,75.007524 40.92554,74.736361 Z"
           id="path357" />
        <path
           style="fill:#1a1a1a;fill-opacity:1;stroke-width:0.264583"
           d="m 40.15064,102.66113 c -3.434,-1.56542 -4.34577,-5.971075 -1.81538,-8.771915 1.80134,-1.99387 -0.65888,-1.87058 35.706993,-1.78931 l 32.566417,0.0728 1.03566,0.72331 c 1.79913,1.25653 2.35858,2.36691 2.35858,4.68127 0,1.73708 -0.0935,2.13912 -0.70276,3.020805 -0.38651,0.55937 -1.16042,1.33328 -1.71979,1.71979 l -1.01704,0.70276 -32.676034,0.062 c -31.157806,0.0591 -32.725316,0.0395 -33.736646,-0.42148 z"
           id="path355" />
        <path
           style="fill:#1a1a1a;fill-opacity:1;stroke-width:0.264583"
           d="m 40.55251,131.11526 c -1.36574,-0.43492 -3.00995,-2.20875 -3.42653,-3.69664 -0.73009,-2.60763 0.416,-5.31909 2.75765,-6.52414 l 1.31349,-0.67595 h 21.0485 21.0485 l 1.313492,0.67595 c 2.341648,1.20505 3.48774,3.91651 2.757652,6.52414 -0.439029,1.56805 -2.079244,3.26886 -3.5868,3.71931 -1.474063,0.44044 -41.838204,0.41927 -43.225954,-0.0227 z"
           id="path353" />
      </g>
    </g>
  </g>
</svg>
