<?xml version="1.0" encoding="UTF-8" standalone="no"?>
<!-- Created with Inkscape (http://www.inkscape.org/) -->

<svg
   width="115"
   height="33"
   viewBox="0 0 30.427082 8.73125"
   version="1.1"
   id="svg5"
   xml:space="preserve"
   inkscape:version="1.2.2 (732a01da63, 2022-12-09)"
   sodipodi:docname="todo_logo.svg"
   xmlns:inkscape="http://www.inkscape.org/namespaces/inkscape"
   xmlns:sodipodi="http://sodipodi.sourceforge.net/DTD/sodipodi-0.dtd"
   xmlns="http://www.w3.org/2000/svg"
   xmlns:svg="http://www.w3.org/2000/svg"><sodipodi:namedview
     id="namedview7"
     pagecolor="#ffffff"
     bordercolor="#000000"
     borderopacity="0.25"
     inkscape:showpageshadow="2"
     inkscape:pageopacity="0.0"
     inkscape:pagecheckerboard="0"
     inkscape:deskcolor="#d1d1d1"
     inkscape:document-units="mm"
     showgrid="false"
     inkscape:zoom="5.9711538"
     inkscape:cx="104"
     inkscape:cy="16.57971"
     inkscape:window-width="1920"
     inkscape:window-height="974"
     inkscape:window-x="-11"
     inkscape:window-y="-11"
     inkscape:window-maximized="1"
     inkscape:current-layer="g4030" /><defs
     id="defs2" /><g
     inkscape:label="Layer 1"
     inkscape:groupmode="layer"
     id="layer1"><g
       id="g4030"
       transform="matrix(0.10920102,0,0,0.10920102,6.9483306,-7.0592972)"
       style="fill:#1a1a1a"><g
         id="g3811"
         transform="matrix(0.76499328,0,0,0.76499328,-85.103401,32.195222)"
         style="fill:#1a1a1a;fill-opacity:1"><path
           style="fill:#1a1a1a;fill-opacity:1;stroke-width:0.264583"
           d="m 107.88624,136.51565 c -0.68348,-0.31793 -3.36524,-2.82268 -7.57155,-7.07179 -6.168502,-6.23127 -6.530084,-6.65133 -6.831784,-7.93676 -0.615217,-2.6212 0.582825,-5.13178 3.017227,-6.32282 1.661638,-0.81297 3.249834,-0.82487 4.907747,-0.0368 0.51149,0.24313 2.71165,2.22671 4.88925,4.40795 l 3.95927,3.96589 9.92742,-9.88692 c 9.57688,-9.53781 9.97534,-9.89808 11.28468,-10.20298 2.56063,-0.59629 5.13029,0.61719 6.30689,2.97832 0.73627,1.4775 0.83132,2.59596 0.3614,4.25307 -0.26347,0.92914 -2.07952,2.86736 -12.36927,13.20144 -7.94782,7.98206 -12.42727,12.29022 -13.13617,12.63385 -1.35863,0.65858 -3.35117,0.66593 -4.74511,0.0175 z"
           id="path302" /><path
           style="fill:#1a1a1a;fill-opacity:1;stroke-width:0.264583"
           d="m 40.92554,74.736361 c -1.60055,-0.505066 -2.68069,-1.423218 -3.42025,-2.907324 -1.12065,-2.248852 -0.7327,-4.597111 1.05479,-6.384596 0.60013,-0.600128 1.53826,-1.205474 2.1527,-1.389063 1.44799,-0.432649 63.98736,-0.472469 65.53854,-0.04173 0.556,0.154395 1.47178,0.697082 2.03506,1.205971 2.85336,2.577838 2.30823,7.19632 -1.07335,9.093697 l -1.17887,0.661458 -32.014582,0.05111 C 48.53346,75.066564 41.78487,75.007524 40.92554,74.736361 Z"
           id="path357" /><path
           style="fill:#1a1a1a;fill-opacity:1;stroke-width:0.264583"
           d="m 40.15064,102.66113 c -3.434,-1.56542 -4.34577,-5.971075 -1.81538,-8.771915 1.80134,-1.99387 -0.65888,-1.87058 35.706993,-1.78931 l 32.566417,0.0728 1.03566,0.72331 c 1.79913,1.25653 2.35858,2.36691 2.35858,4.68127 0,1.73708 -0.0935,2.13912 -0.70276,3.020805 -0.38651,0.55937 -1.16042,1.33328 -1.71979,1.71979 l -1.01704,0.70276 -32.676034,0.062 c -31.157806,0.0591 -32.725316,0.0395 -33.736646,-0.42148 z"
           id="path355" /><path
           style="fill:#1a1a1a;fill-opacity:1;stroke-width:0.264583"
           d="m 40.55251,131.11526 c -1.36574,-0.43492 -3.00995,-2.20875 -3.42653,-3.69664 -0.73009,-2.60763 0.416,-5.31909 2.75765,-6.52414 l 1.31349,-0.67595 h 21.0485 21.0485 l 1.313492,0.67595 c 2.341648,1.20505 3.48774,3.91651 2.757652,6.52414 -0.439029,1.56805 -2.079244,3.26886 -3.5868,3.71931 -1.474063,0.44044 -41.838204,0.41927 -43.225954,-0.0227 z"
           id="path353" /></g><path
         d="m 57.496163,130.53714 q 0,2.03249 -0.277158,3.14112 -0.230965,1.06244 -0.646703,1.52437 -0.415737,0.41574 -1.247211,0.78528 -0.785281,0.32335 -1.893914,0.55432 -1.062439,0.27716 -2.355844,0.41574 -1.247211,0.13857 -2.540616,0.13857 -3.464476,0 -6.005092,-0.87766 -2.540616,-0.87767 -4.203565,-2.6792 -1.662949,-1.84772 -2.44823,-4.6193 -0.785281,-2.77158 -0.785281,-6.55941 v -21.11021 h -4.942653 q -0.877667,0 -1.339598,-1.06244 -0.46193,-1.10863 -0.46193,-3.649246 0,-1.339598 0.09239,-2.263458 0.138579,-0.92386 0.369544,-1.431984 0.230965,-0.554316 0.554317,-0.785281 0.369544,-0.230965 0.831474,-0.230965 h 4.89646 v -9.192411 q 0,-0.46193 0.230965,-0.831474 0.277158,-0.369544 0.92386,-0.600509 0.692896,-0.277158 1.801528,-0.369545 1.154826,-0.138579 2.817774,-0.138579 1.709142,0 2.817774,0.138579 1.154826,0.09239 1.801528,0.369545 0.646702,0.230965 0.92386,0.600509 0.277159,0.369544 0.277159,0.831474 v 9.192411 h 8.961445 q 0.46193,0 0.785281,0.230965 0.369545,0.230965 0.60051,0.785281 0.230965,0.508124 0.323351,1.431984 0.138579,0.92386 0.138579,2.263458 0,2.540616 -0.46193,3.649246 -0.461931,1.06244 -1.339598,1.06244 h -9.007638 v 19.35488 q 0,3.37209 1.062439,5.08123 1.062439,1.66295 3.787827,1.66295 0.923861,0 1.662949,-0.13858 0.739088,-0.18477 1.293405,-0.36955 0.600509,-0.23096 0.970053,-0.36954 0.415737,-0.18477 0.739088,-0.18477 0.277158,0 0.508124,0.18477 0.277158,0.13858 0.415737,0.6467 0.138579,0.46193 0.230965,1.29341 0.138579,0.83147 0.138579,2.12488 z"
         style="font-weight:bold;font-size:94.6033px;font-family:Calibri;-inkscape-font-specification:'Calibri Bold';text-align:justify;stroke-width:11.8254;stroke-linejoin:round"
         id="path11459" /><path
         d="m 106.64553,113.5843 c 0,3.51067 -0.46193,6.71338 -1.38579,9.60815 -0.92386,2.89476 -2.32505,5.38918 -4.20356,7.48326 -1.878517,2.09409 -4.234361,3.71084 -7.067533,4.85027 -2.833172,1.13943 -6.143672,1.70914 -9.931499,1.70914 -3.664646,0 -6.851964,-0.50812 -9.561955,-1.52437 -2.70999,-1.01625 -4.95805,-2.49442 -6.744181,-4.43453 -1.78613,-1.94011 -3.11033,-4.32674 -3.972599,-7.15991 -0.86227,-2.83317 -1.293405,-6.06669 -1.293405,-9.70054 0,-3.51067 0.46193,-6.71338 1.385791,-9.60815 0.954655,-2.92555 2.371241,-5.419975 4.249758,-7.483265 1.878516,-2.094083 4.218962,-3.710839 7.021338,-4.850267 2.833172,-1.139428 6.143672,-1.709142 9.931499,-1.709142 3.695442,0 6.898158,0.508123 9.608148,1.52437 2.709991,0.985451 4.942653,2.44823 6.697988,4.388337 1.78613,1.940107 3.11033,4.326747 3.9726,7.159917 0.86227,2.83317 1.2934,6.08208 1.2934,9.74673 z"
         style="font-weight:bold;font-size:94.6033px;font-family:Calibri;-inkscape-font-specification:'Calibri Bold';text-align:justify;stroke-width:11.8254;stroke-linejoin:round;fill:#fec627;fill-opacity:1"
         id="path11472"
         sodipodi:nodetypes="ssssssssscccsccss" /><path
         d="m 106.64553,113.5843 q 0,5.266 -1.38579,9.60815 -1.38579,4.34214 -4.20356,7.48326 -2.817775,3.14113 -7.067533,4.85027 -4.249758,1.70914 -9.931499,1.70914 -5.496969,0 -9.561955,-1.52437 -4.064985,-1.52437 -6.744181,-4.43453 -2.679195,-2.91016 -3.972599,-7.15991 -1.293405,-4.24976 -1.293405,-9.70054 0,-5.266 1.385791,-9.60815 1.431983,-4.38833 4.249758,-7.483265 2.817774,-3.141125 7.021338,-4.850267 4.249758,-1.709142 9.931499,-1.709142 5.543163,0 9.608148,1.52437 4.064986,1.478177 6.697988,4.388337 2.6792,2.91016 3.9726,7.159917 1.2934,4.24976 1.2934,9.74673 z m -11.963988,0.46193 q 0,-3.04874 -0.508123,-5.58936 -0.46193,-2.58681 -1.616756,-4.48072 -1.154825,-1.89391 -3.094932,-2.95635 -1.893914,-1.062443 -4.804074,-1.062443 -2.586809,0 -4.526916,0.970053 -1.940106,0.92386 -3.187318,2.77158 -1.247211,1.80153 -1.893914,4.38834 -0.600509,2.54061 -0.600509,5.82032 0,3.04874 0.508123,5.63555 0.508124,2.54061 1.616756,4.43453 1.154825,1.89391 3.094932,2.95635 1.940107,1.01625 4.804074,1.01625 2.633002,0 4.573109,-0.92386 1.940107,-0.97006 3.187318,-2.77159 1.247212,-1.80152 1.847721,-4.34214 0.600509,-2.58681 0.600509,-5.86651 z"
         style="font-weight:bold;font-size:94.6033px;font-family:Calibri;-inkscape-font-specification:'Calibri Bold';text-align:justify;stroke-width:11.8254;stroke-linejoin:round"
         id="path11461" /><path
         d="m 154.91724,134.60212 q 0,0.50812 -0.23097,0.87767 -0.23096,0.32335 -0.78528,0.55431 -0.55431,0.23097 -1.52437,0.32336 -0.92386,0.0924 -2.30965,0.0924 -1.47817,0 -2.40203,-0.0924 -0.92386,-0.0924 -1.52437,-0.32336 -0.55432,-0.23096 -0.83148,-0.55431 -0.23096,-0.36955 -0.23096,-0.87767 v -4.57311 q -3.18732,3.41829 -6.69799,5.3122 -3.46448,1.89391 -7.71423,1.89391 -4.71169,0 -7.9914,-1.80152 -3.23351,-1.84773 -5.31219,-4.94266 -2.0325,-3.09493 -2.95636,-7.20611 -0.92386,-4.15737 -0.92386,-8.73048 0,-5.49697 1.15483,-9.8853 1.20102,-4.38834 3.46447,-7.483274 2.26346,-3.094932 5.63555,-4.757881 3.37209,-1.662949 7.76043,-1.662949 3.46448,0 6.28225,1.431984 2.81777,1.385791 5.58936,4.111179 V 73.996881 q 0,-0.46193 0.23096,-0.831475 0.27716,-0.369544 0.92386,-0.600509 0.6929,-0.277158 1.80153,-0.415737 1.10863,-0.138579 2.81777,-0.138579 1.70914,0 2.81778,0.138579 1.10863,0.138579 1.75533,0.415737 0.6467,0.230965 0.92386,0.600509 0.27716,0.369545 0.27716,0.831475 z m -11.54825,-27.53104 q -2.49443,-3.14112 -4.80408,-4.80407 -2.26346,-1.66295 -4.75788,-1.66295 -2.26346,0 -3.92641,1.15482 -1.61675,1.10864 -2.633,3.00255 -0.97005,1.89391 -1.47817,4.24976 -0.46194,2.30965 -0.46194,4.75788 0,2.58681 0.41574,5.03504 0.41574,2.44823 1.3396,4.38834 0.97005,1.89391 2.54062,3.04873 1.57056,1.15483 3.9726,1.15483 1.20101,0 2.30965,-0.32335 1.15482,-0.36955 2.30965,-1.15483 1.20102,-0.78528 2.44823,-2.03249 1.24721,-1.2934 2.72539,-3.14112 z"
         style="font-weight:bold;font-size:94.6033px;font-family:Calibri;-inkscape-font-specification:'Calibri Bold';text-align:justify;stroke-width:11.8254;stroke-linejoin:round"
         id="path11463" /><path
         d="m 208.27016,113.5843 c 0,3.51067 -0.46193,6.71338 -1.38579,9.60815 -0.92385,2.89476 -2.32505,5.38918 -4.20356,7.48326 -1.87852,2.09409 -4.23436,3.71084 -7.06753,4.85027 -2.83317,1.13943 -6.14367,1.70914 -9.9315,1.70914 -3.66465,0 -6.85196,-0.50812 -9.56196,-1.52437 -2.70999,-1.01625 -4.95804,-2.49442 -6.74418,-4.43453 -1.78613,-1.94011 -3.11033,-4.32674 -3.9726,-7.15991 -0.86227,-2.83317 -1.2934,-6.06669 -1.2934,-9.70054 0,-3.51067 0.46193,-6.71338 1.3858,-9.60815 0.95465,-2.92555 2.37124,-5.419972 4.24976,-7.483263 1.87851,-2.094083 4.21896,-3.710839 7.02134,-4.850267 2.83317,-1.139428 6.14367,-1.709142 9.9315,-1.709142 3.69544,0 6.89815,0.508123 9.60814,1.52437 2.70999,0.985451 4.94266,2.44823 6.69799,4.388337 1.78613,1.940103 3.11033,4.326745 3.9726,7.159915 0.86227,2.83317 1.2934,6.08208 1.29339,9.74673 z"
         style="font-weight:bold;font-size:94.6033px;font-family:Calibri;-inkscape-font-specification:'Calibri Bold';text-align:justify;fill:#fec627;fill-opacity:1;stroke-width:11.8254;stroke-linejoin:round"
         id="path11472-7"
         sodipodi:nodetypes="ssssssssscccsccss" /><path
         d="m 208.27017,113.5843 q 0,5.266 -1.38579,9.60815 -1.38579,4.34214 -4.20357,7.48326 -2.81777,3.14113 -7.06753,4.85027 -4.24975,1.70914 -9.9315,1.70914 -5.49697,0 -9.56195,-1.52437 -4.06499,-1.52437 -6.74418,-4.43453 -2.6792,-2.91016 -3.9726,-7.15991 -1.29341,-4.24976 -1.29341,-9.70054 0,-5.266 1.38579,-9.60815 1.43199,-4.38833 4.24976,-7.483265 2.81778,-3.141125 7.02134,-4.850267 4.24976,-1.709142 9.9315,-1.709142 5.54316,0 9.60815,1.52437 4.06498,1.478177 6.69799,4.388337 2.67919,2.91016 3.9726,7.159917 1.2934,4.24976 1.2934,9.74673 z m -11.96399,0.46193 q 0,-3.04874 -0.50813,-5.58936 -0.46193,-2.58681 -1.61675,-4.48072 -1.15483,-1.89391 -3.09493,-2.95635 -1.89392,-1.062443 -4.80408,-1.062443 -2.58681,0 -4.52691,0.970053 -1.94011,0.92386 -3.18732,2.77158 -1.24721,1.80153 -1.89391,4.38834 -0.60051,2.54061 -0.60051,5.82032 0,3.04874 0.50812,5.63555 0.50812,2.54061 1.61675,4.43453 1.15483,1.89391 3.09494,2.95635 1.9401,1.01625 4.80407,1.01625 2.633,0 4.57311,-0.92386 1.94011,-0.97006 3.18732,-2.77159 1.24721,-1.80152 1.84772,-4.34214 0.60051,-2.58681 0.60051,-5.86651 z"
         style="font-weight:bold;font-size:94.6033px;font-family:Calibri;-inkscape-font-specification:'Calibri Bold';text-align:justify;stroke-width:11.8254;stroke-linejoin:round"
         id="path11465" /></g></g></svg>
